<svg width="25" height="50" viewBox="0 0 47 43" fill="#FBD160" xmlns="http://www.w3.org/2000/svg">
<path  stroke="#FBD160" d="M34.0919 0.415482C30.0899 0.415482 26.2489 2.26943 23.7419 5.19913C21.2349 2.26943 17.3939 0.415482 13.3919 0.415482C6.30785 0.415482 0.741852 5.95445 0.741852 13.0041C0.741852 21.6558 8.56185 28.7054 20.4069 39.4171L23.7419 42.4155L27.0769 39.3942C38.9219 28.7054 46.7419 21.6558 46.7419 13.0041C46.7419 5.95445 41.1759 0.415482 34.0919 0.415482ZM23.9719 36.0068L23.7419 36.2357L23.5118 36.0068C12.5638 26.1419 5.34185 19.6188 5.34185 13.0041C5.34185 8.42638 8.79185 4.99314 13.3919 4.99314C16.9339 4.99314 20.3839 7.25908 21.6029 10.3948H25.9039C27.0999 7.25908 30.5499 4.99314 34.0919 4.99314C38.6919 4.99314 42.1419 8.42638 42.1419 13.0041C42.1419 19.6188 34.9199 26.1419 23.9719 36.0068Z" fill="#FBD160"/>
<path d="M24 16V21M24 26V21M24 21H29H19" stroke="#FBD160" stroke-width="4" stroke-linecap="round" stroke-linejoin="round"/>
</svg>
